<svg width="69" height="63" viewBox="0 0 69 63" fill="none" xmlns="http://www.w3.org/2000/svg">
<path fill-rule="evenodd" clip-rule="evenodd" d="M7.66667 17.4462H0V43.8333C0 54.4188 8.58121 63 19.1667 63C29.7521 63 38.3333 54.4188 38.3333 43.8333V17.4462H30.6667V44.7154C30.6667 51.0667 25.5179 56.2154 19.1667 56.2154C12.8154 56.2154 7.66667 51.0667 7.66667 44.7154V17.4462Z" fill="#DD4BD7"/>
<path fill-rule="evenodd" clip-rule="evenodd" d="M30.6667 45.5538L69 45.5538V19.1667C69 8.5812 60.4188 -1.52588e-05 49.8333 -1.52588e-05C39.2479 -1.52588e-05 30.6667 8.5812 30.6667 19.1667V45.5538ZM38.3333 18.2846V45.5538L61.3333 45.5538V18.2846C61.3333 11.9333 56.1846 6.7846 49.8333 6.7846C43.4821 6.7846 38.3333 11.9333 38.3333 18.2846Z" fill="#DD4BD7"/>
</svg>
