<svg width="52" height="53" viewBox="0 0 52 53" fill="none" xmlns="http://www.w3.org/2000/svg">
<path d="M29.25 46C33.1067 46 36.8769 44.8563 40.0836 42.7137C43.2904 40.571 45.7897 37.5255 47.2657 33.9623C48.7416 30.3992 49.1277 26.4784 48.3753 22.6957C47.6229 18.9131 45.7657 15.4385 43.0386 12.7114C40.3115 9.9843 36.8369 8.12711 33.0543 7.3747C29.2716 6.62228 25.3508 7.00845 21.7877 8.48436C18.2245 9.96027 15.179 12.4596 13.0363 15.6664C10.8937 18.8731 9.75 22.6433 9.75 26.5V36.575L3.9 30.725L1.625 33L11.375 42.75L21.125 33L18.85 30.725L13 36.575V26.5C13 23.2861 13.953 20.1443 15.7386 17.472C17.5242 14.7997 20.0621 12.7169 23.0314 11.487C26.0007 10.257 29.268 9.93524 32.4202 10.5622C35.5724 11.1893 38.4679 12.7369 40.7405 15.0095C43.0131 17.2821 44.5608 20.1776 45.1878 23.3298C45.8148 26.482 45.493 29.7493 44.2631 32.7186C43.0331 35.6879 40.9503 38.2258 38.278 40.0114C35.6057 41.797 32.464 42.75 29.25 42.75V46Z" fill="#88CCF1"/>
</svg>
